<?xml version="1.0" standalone="no"?>
<!DOCTYPE svg PUBLIC "-//W3C//DTD SVG 20010904//EN"
 "http://www.w3.org/TR/2001/REC-SVG-20010904/DTD/svg10.dtd">
<svg version="1.0" xmlns="http://www.w3.org/2000/svg"
 width="334.000000pt" height="334.000000pt" viewBox="0 0 334.000000 334.000000"
 preserveAspectRatio="xMidYMid meet">
<metadata>
Created by potrace 1.14, written by Peter Selinger 2001-2017
</metadata>
<g transform="translate(0.000000,334.000000) scale(0.100000,-0.100000)"
fill="#000000" stroke="none">
<path d="M2240 2688 c-147 -17 -236 -41 -350 -95 -159 -75 -274 -183 -366
-347 -24 -43 -44 -82 -44 -86 0 -4 -6 -22 -13 -40 -14 -31 -15 -29 -122 242
-59 150 -109 275 -111 276 -1 2 -99 5 -217 5 l-214 2 -11 -25 c-6 -14 -47
-117 -92 -230 -45 -113 -88 -219 -96 -237 -7 -17 -14 -37 -14 -45 0 -8 -4 -18
-8 -23 -4 -6 -18 -35 -30 -65 -11 -30 -71 -180 -132 -334 -60 -153 -110 -283
-110 -287 0 -5 206 -9 459 -9 l459 0 -48 128 -48 127 -215 3 -215 2 35 88 c19
48 89 228 156 399 l121 313 29 -73 c16 -39 33 -81 37 -92 4 -11 12 -31 18 -45
7 -14 34 -86 62 -160 28 -74 55 -144 60 -155 5 -11 19 -47 31 -80 12 -33 27
-67 34 -75 21 -25 122 -318 149 -434 70 -293 239 -500 495 -605 319 -132 743
-108 1025 57 171 100 306 284 370 501 9 30 16 56 16 58 0 6 -66 -5 -115 -18
-22 -6 -49 -13 -60 -15 -11 -2 -52 -11 -91 -19 -69 -15 -72 -17 -90 -57 -83
-184 -266 -312 -479 -335 -258 -28 -458 28 -602 169 -70 69 -129 184 -162 313
-43 174 -38 463 11 625 85 279 299 430 613 433 234 3 372 -47 504 -181 l74
-75 126 64 c69 35 128 65 130 67 3 1 -6 17 -19 35 -159 215 -421 333 -760 341
-63 1 -144 -1 -180 -6z"/>
<path d="M142 982 c-67 -169 -125 -315 -128 -324 -6 -17 5 -18 144 -18 l150 0
78 198 c42 108 83 212 90 230 l13 32 420 0 c232 0 421 3 421 8 0 4 -14 46 -32
95 l-33 87 -500 0 -501 -1 -122 -307z"/>
</g>
</svg>
